<svg width="16" height="16" viewBox="0 0 16 16" fill="none" xmlns="http://www.w3.org/2000/svg">
<path d="M15.0898 13.1016L9.98828 8L15.0898 2.89844C15.6406 2.34766 15.6406 1.46094 15.0898 0.910156C14.5391 0.359375 13.6523 0.359375 13.1016 0.910156L8 6.01172L2.89844 0.910156C2.34766 0.359375 1.46094 0.359375 0.910156 0.910156C0.359375 1.46094 0.359375 2.34766 0.910156 2.89844L6.01172 8L0.910156 13.1016C0.359375 13.6523 0.359375 14.5391 0.910156 15.0898C1.46094 15.6406 2.34766 15.6406 2.89844 15.0898L8 9.98828L13.1016 15.0898C13.6523 15.6406 14.5391 15.6406 15.0898 15.0898C15.6367 14.5391 15.6367 13.6484 15.0898 13.1016Z" fill="black"/>
</svg>
