<svg width="148" height="143" viewBox="0 0 148 143" fill="none" xmlns="http://www.w3.org/2000/svg">
<path d="M74 143C114.869 143 148 110.988 148 71.5C148 32.0116 114.869 0 74 0C33.1309 0 0 32.0116 0 71.5C0 110.988 33.1309 143 74 143Z" fill="#FABB16"/>
<path d="M109.679 48.6966V94.3028C109.679 94.7307 109.593 95.1544 109.426 95.5496C109.26 95.9449 109.015 96.3041 108.707 96.6066C108.399 96.9091 108.033 97.1491 107.63 97.3127C107.227 97.4764 106.796 97.5606 106.36 97.5605H41.6407C41.2048 97.5606 40.7732 97.4764 40.3705 97.3127C39.9678 97.1491 39.6018 96.9091 39.2936 96.6066C38.9854 96.3041 38.741 95.9449 38.5742 95.5496C38.4075 95.1544 38.3217 94.7307 38.3218 94.3028V48.6966C38.3197 48.3239 38.3872 47.954 38.5211 47.6052C38.7195 47.0487 39.0696 46.5562 39.5334 46.1815C39.9971 45.8067 40.5567 45.564 41.1513 45.4797C41.3131 45.4537 41.4767 45.44 41.6407 45.439H106.36C106.524 45.44 106.688 45.4537 106.849 45.4797C107.444 45.5639 108.004 45.8066 108.467 46.1814C108.931 46.5562 109.281 47.0487 109.479 47.6052C109.613 47.954 109.681 48.3239 109.679 48.6966Z" fill="white"/>
<path d="M109.679 47.5966L74.9932 73.1737C74.7075 73.3883 74.3588 73.5044 74.0003 73.5044C73.6418 73.5044 73.2931 73.3883 73.0074 73.1737L38.3218 47.5966C38.5213 47.0316 38.8733 46.5318 39.3397 46.1513C39.806 45.7709 40.3688 45.5245 40.9667 45.439L74.0004 69.7926L107.034 45.439C107.632 45.5244 108.195 45.7708 108.661 46.1512C109.127 46.5317 109.479 47.0316 109.679 47.5966Z" fill="#FABB16"/>
</svg>
