<svg width="148" height="143" viewBox="0 0 148 143" fill="none" xmlns="http://www.w3.org/2000/svg">
<path d="M74 143C114.869 143 148 110.988 148 71.5C148 32.0117 114.869 0 74 0C33.1309 0 0 32.0117 0 71.5C0 110.988 33.1309 143 74 143Z" fill="#3393C4"/>
<path d="M66.667 98.7752C65.0022 98.7779 63.3816 98.2575 62.0497 97.2925L61.9671 97.2327L44.5761 84.3786C43.7706 83.7819 43.0947 83.0378 42.5869 82.1888C42.079 81.3398 41.7493 80.4024 41.6164 79.4302C41.4835 78.458 41.55 77.4701 41.8123 76.5228C42.0745 75.5754 42.5273 74.6873 43.1448 73.9091C43.7623 73.1308 44.5324 72.4777 45.4111 71.9871C46.2899 71.4964 47.26 71.1778 48.2662 71.0493C49.2723 70.9209 50.2948 70.9852 51.2753 71.2386C52.2557 71.492 53.1749 71.9295 53.9804 72.5262L65.2448 80.8725L91.8634 47.3188C92.4807 46.5409 93.2504 45.8881 94.1288 45.3976C95.0072 44.9071 95.9769 44.5886 96.9827 44.4603C97.9884 44.3319 99.0105 44.3962 99.9905 44.6495C100.971 44.9028 101.889 45.3401 102.694 45.9365L102.697 45.9382L102.532 46.1598L102.701 45.9382C104.325 47.1443 105.388 48.9239 105.656 50.8862C105.924 52.8486 105.375 54.8335 104.13 56.4054L72.8209 95.8543C72.0966 96.7632 71.1652 97.4987 70.0992 98.0037C69.0331 98.5087 67.861 98.7697 66.6737 98.7664L66.667 98.7752Z" fill="white"/>
</svg>
