<svg width="86" height="70" viewBox="0 0 86 70" fill="none" xmlns="http://www.w3.org/2000/svg">
<rect x="20.3164" width="36.939" height="32.9419" rx="5" fill="#F0754E"/>
<rect y="35.3521" width="36.939" height="32.9419" rx="5" fill="#FABB16"/>
<rect width="36.7111" height="33.2084" rx="5" transform="matrix(0.980417 -0.196931 0.256477 0.96655 41.4912 36.9023)" fill="#43B1B1"/>
<rect x="20.3164" width="36.939" height="32.9419" rx="5" fill="#F0754E"/>
<rect y="35.3521" width="36.939" height="32.9419" rx="5" fill="#FABB16"/>
<rect width="36.7111" height="33.2084" rx="5" transform="matrix(0.980417 -0.196931 0.256477 0.96655 41.4912 36.9023)" fill="#43B1B1"/>
<path d="M31.5312 22C31.9349 20.5091 32.3809 18.9954 32.8691 17.459C33.3574 15.9225 33.9629 14.0866 34.6855 11.9512C35.4147 9.80924 35.9128 8.32812 36.1797 7.50781C36.2578 7.3776 36.3099 7.29948 36.3359 7.27344H37.9766C38.3607 7.27344 38.9271 7.26693 39.6758 7.25391C40.4245 7.24089 40.9909 7.23438 41.375 7.23438H43.0156C43.1133 7.23438 43.1947 7.23763 43.2598 7.24414C43.3249 7.24414 43.403 7.25065 43.4941 7.26367C43.5853 7.27669 43.6569 7.29622 43.709 7.32227C43.7676 7.34831 43.8164 7.38737 43.8555 7.43945C43.8945 7.49154 43.9141 7.55339 43.9141 7.625L48.416 21.8926C48.416 22.0228 48.3672 22.1107 48.2695 22.1562C48.1784 22.2083 48.0026 22.2344 47.7422 22.2344H46.8438C46.5833 22.2344 46.196 22.2376 45.6816 22.2441C45.1673 22.2507 44.7799 22.2539 44.5195 22.2539C44.4414 22.2539 44.2819 22.2572 44.041 22.2637C43.8066 22.2767 43.6081 22.2799 43.4453 22.2734C43.2826 22.2734 43.1003 22.2637 42.8984 22.2441C42.7031 22.2311 42.5436 22.1953 42.4199 22.1367C42.3027 22.0846 42.2279 22.013 42.1953 21.9219V21.2773C42.1302 20.9518 42.0163 20.6523 41.8535 20.3789C41.6908 20.1055 41.5182 19.9688 41.3359 19.9688H37.9766L37.4688 22.0391C37.3971 22.1953 37.0326 22.2734 36.375 22.2734H35.5938C35.3138 22.2734 34.8971 22.2832 34.3438 22.3027C33.7904 22.3223 33.3737 22.332 33.0938 22.332H32.8203C32.7161 22.332 32.5501 22.3353 32.3223 22.3418C32.1009 22.3483 31.9284 22.3516 31.8047 22.3516C31.7526 22.2995 31.6615 22.1823 31.5312 22ZM38.3086 16.0723L38.582 16.5312H39.2266C39.7474 16.5312 40.2227 16.502 40.6523 16.4434C41.0885 16.3783 41.3066 16.2773 41.3066 16.1406L40.0469 10.5156C39.9297 10.5156 39.7702 10.737 39.5684 11.1797C39.373 11.6224 39.2135 12.1237 39.0898 12.6836L38.3086 16.0723Z" fill="white"/>
<path d="M12.8984 57.6719V44.5273L21.3359 44.2344C21.8568 44.2344 22.3451 44.2669 22.8008 44.332C23.2565 44.3971 23.7155 44.5208 24.1777 44.7031C24.6465 44.8789 25.0436 45.11 25.3691 45.3965C25.7012 45.6764 25.9714 46.0508 26.1797 46.5195C26.388 46.9883 26.4922 47.5286 26.4922 48.1406C26.4922 48.9544 26.3132 49.6152 25.9551 50.123C25.597 50.6243 25.0599 51.0703 24.3438 51.4609C25.1836 51.6953 25.8216 52.1022 26.2578 52.6816C26.7005 53.2546 26.9219 53.9805 26.9219 54.8594C26.9219 55.5104 26.7982 56.0964 26.5508 56.6172C26.3034 57.1315 25.9844 57.5514 25.5938 57.877C25.2031 58.2025 24.7441 58.4727 24.2168 58.6875C23.6895 58.9023 23.1654 59.0521 22.6445 59.1367C22.1302 59.2279 21.6029 59.2734 21.0625 59.2734C20.75 59.2734 20.278 59.2669 19.6465 59.2539C19.0215 59.2409 18.5495 59.2344 18.2305 59.2344C16.4206 59.2344 14.7604 59.2604 13.25 59.3125C13.0352 58.9674 12.918 58.4206 12.8984 57.6719ZM18.5039 47.7891C18.5039 48.082 18.5137 48.5182 18.5332 49.0977C18.5527 49.6771 18.5625 50.1133 18.5625 50.4062C18.5625 50.5299 18.6406 50.6016 18.7969 50.6211C18.888 50.6081 19.0443 50.5885 19.2656 50.5625C19.4935 50.5299 19.6725 50.5039 19.8027 50.4844C19.9329 50.4648 20.0892 50.4193 20.2715 50.3477C20.4603 50.2695 20.6068 50.1784 20.7109 50.0742C20.8151 49.9701 20.9062 49.8203 20.9844 49.625C21.0625 49.4232 21.1016 49.1888 21.1016 48.9219C21.1016 47.9323 20.418 47.4375 19.0508 47.4375C18.7773 47.4831 18.6178 47.5286 18.5723 47.5742C18.5267 47.6263 18.5039 47.6979 18.5039 47.7891ZM18.6797 55.2305C18.6797 55.7122 18.7057 55.9531 18.7578 55.9531H19.0703C19.3242 55.9531 19.5423 55.9466 19.7246 55.9336C19.9134 55.9141 20.1152 55.8717 20.3301 55.8066C20.5449 55.7415 20.7174 55.6536 20.8477 55.543C20.9779 55.4258 21.0885 55.263 21.1797 55.0547C21.2708 54.8464 21.3164 54.599 21.3164 54.3125C21.3164 54.1497 21.3001 54 21.2676 53.8633C21.235 53.7266 21.1829 53.6094 21.1113 53.5117C21.0397 53.4141 20.9681 53.3294 20.8965 53.2578C20.8314 53.1862 20.7337 53.1276 20.6035 53.082C20.4798 53.0299 20.3757 52.9909 20.291 52.9648C20.2129 52.9323 20.0924 52.9062 19.9297 52.8867C19.7669 52.8672 19.6497 52.8542 19.5781 52.8477C19.5065 52.8411 19.3828 52.8346 19.207 52.8281C19.0312 52.8151 18.9206 52.8086 18.875 52.8086V53.1797C18.8685 53.2513 18.8327 53.4922 18.7676 53.9023C18.709 54.3125 18.6797 54.638 18.6797 54.8789V55.2305Z" fill="white"/>
<path d="M71.0426 50.7196C71.1328 51.6975 71.057 52.5959 70.815 53.4148C70.5716 54.2273 70.1888 54.9284 69.6664 55.5181C69.1426 56.1014 68.5096 56.5905 67.7671 56.9853C67.0311 57.3788 66.1971 57.6692 65.2652 57.8564C64.3971 58.0308 63.5857 58.0941 62.8311 58.0465C62.0778 58.0052 61.4229 57.8778 60.8665 57.6642C60.31 57.4506 59.7971 57.1585 59.3278 56.788C58.8571 56.4111 58.461 56.0092 58.1395 55.5824C57.8167 55.1492 57.5268 54.6663 57.2698 54.1335C57.0178 53.5932 56.8159 53.0859 56.6641 52.6117C56.5174 52.1299 56.389 51.6245 56.279 51.0954L56.1041 50.254C55.9744 49.3106 56.0178 48.432 56.2343 47.6182C56.4494 46.7981 56.7749 46.1085 57.2105 45.5496C57.6449 44.9842 58.1724 44.4832 58.7931 44.0464C59.4125 43.6032 60.0326 43.2596 60.6534 43.0153C61.2729 42.7647 61.9018 42.5753 62.5401 42.4471C63.5677 42.2407 64.4999 42.1829 65.3367 42.2738C66.1786 42.3571 66.8948 42.5718 67.4854 42.918C68.0761 43.2641 68.5721 43.699 68.9736 44.2227C69.3737 44.7399 69.6863 45.3478 69.9113 46.0463L70.1021 46.9642C70.1445 47.1682 69.4636 47.4112 68.0594 47.6932C67.7275 47.7599 67.2634 47.8465 66.6671 47.953C66.0772 48.0582 65.6898 48.1294 65.5046 48.1666C65.4727 48.173 65.4255 48.1858 65.363 48.205C65.3005 48.2242 65.2533 48.237 65.2214 48.2434C65.0554 48.2767 64.9139 48.2354 64.7967 48.1195C64.6845 47.996 64.592 47.8386 64.519 47.6474C64.4524 47.4549 64.3762 47.2644 64.2904 47.0758C64.211 46.8859 64.0904 46.7374 63.9285 46.6305C63.7717 46.5159 63.5784 46.4817 63.3486 46.5279C63.1188 46.574 62.9257 46.6526 62.7693 46.7638C62.6129 46.8749 62.5008 47.0235 62.4331 47.2098C62.3641 47.3896 62.3118 47.5695 62.276 47.7493C62.2466 47.9279 62.2438 48.1542 62.2676 48.4283C62.2964 48.6948 62.3236 48.9217 62.3493 49.1091C62.38 49.2889 62.424 49.5324 62.4812 49.8396C62.5371 50.1405 62.5765 50.3617 62.5992 50.5032C62.6151 50.5797 62.6379 50.7212 62.6676 50.9277C62.6972 51.1343 62.7253 51.3013 62.7518 51.4288C63.0818 53.0159 63.6727 53.7472 64.5245 53.6226C64.7543 53.5764 64.9254 53.4557 65.0377 53.2605C65.1501 53.0653 65.2106 52.8606 65.2192 52.6463C65.2343 52.4308 65.2537 52.2045 65.2775 51.9673C65.3 51.7237 65.3441 51.5522 65.4099 51.4526L70.6184 50.4064C70.833 50.3832 70.9744 50.4876 71.0426 50.7196Z" fill="white"/>
</svg>
