<svg width="25" height="23" viewBox="0 0 25 23" fill="none" xmlns="http://www.w3.org/2000/svg">
<path d="M23.2109 20.3337L18.1327 15.6618H18.078C19.6433 13.9639 20.4342 11.775 20.2855 9.55292C20.1368 7.33084 19.0599 5.24774 17.2801 3.73936C15.5003 2.23099 13.1554 1.41419 10.7361 1.45982C8.31669 1.50546 6.01021 2.40999 4.2991 3.98421C2.58799 5.55844 1.6048 7.6804 1.55519 9.90621C1.50559 12.132 2.39342 14.2893 4.03296 15.9267C5.67249 17.5641 7.93674 18.5549 10.352 18.6917C12.7673 18.8285 15.1466 18.1008 16.9921 16.6608C16.9921 16.6608 16.9921 16.6968 16.9921 16.7112L22.0702 21.383C22.1429 21.4504 22.2293 21.5039 22.3245 21.5404C22.4197 21.5769 22.5218 21.5956 22.6249 21.5956C22.7281 21.5956 22.8302 21.5769 22.9254 21.5404C23.0206 21.5039 23.107 21.4504 23.1796 21.383C23.2597 21.3178 23.3244 21.2381 23.3696 21.1489C23.4149 21.0597 23.4397 20.963 23.4427 20.8646C23.4456 20.7662 23.4265 20.6683 23.3867 20.577C23.3468 20.4857 23.2869 20.4028 23.2109 20.3337ZM10.9374 17.2502C9.39225 17.2502 7.88179 16.8287 6.59703 16.0389C5.31227 15.2491 4.31092 14.1266 3.71961 12.8133C3.1283 11.4999 2.97359 10.0547 3.27504 8.66051C3.57648 7.26627 4.32055 5.98558 5.41315 4.98039C6.50575 3.9752 7.8978 3.29066 9.41328 3.01333C10.9288 2.73599 12.4996 2.87833 13.9271 3.42234C15.3547 3.96634 16.5748 4.88758 17.4333 6.06956C18.2917 7.25154 18.7499 8.64117 18.7499 10.0627C18.7499 11.0066 18.5478 11.9412 18.1552 12.8133C17.7626 13.6853 17.1871 14.4776 16.4617 15.1451C15.7362 15.8125 14.875 16.3419 13.9271 16.7031C12.9793 17.0643 11.9634 17.2502 10.9374 17.2502Z" fill="#6C6C6C"/>
</svg>
