<svg width="21" height="22" viewBox="0 0 21 22" fill="none" xmlns="http://www.w3.org/2000/svg">
<path d="M19.0113 9.25H12.1875V2.17344C12.1875 1.24922 11.4334 0.5 10.5 0.5C9.5666 0.5 8.8125 1.24922 8.8125 2.17344V9.25H1.98867C1.09746 9.25 0.375 10.032 0.375 11C0.375 11.968 1.09746 12.75 1.98867 12.75H8.8125V19.8266C8.8125 20.7508 9.5666 21.5 10.5 21.5C11.4334 21.5 12.1875 20.7508 12.1875 19.8266V12.75H19.0113C19.9025 12.75 20.625 11.968 20.625 11C20.625 10.032 19.9025 9.25 19.0113 9.25Z" fill="white"/>
</svg>
