<svg width="97" height="83" viewBox="0 0 97 83" fill="none" xmlns="http://www.w3.org/2000/svg">
<path d="M4.47413 70.69C4.47413 69.794 4.65547 69.01 5.01813 68.338C5.3808 67.6553 5.8768 67.1273 6.50613 66.754C7.14613 66.3806 7.85547 66.194 8.63413 66.194C9.40213 66.194 10.0688 66.3593 10.6341 66.69C11.1995 67.0206 11.6208 67.4366 11.8981 67.938V66.338H13.3701V75.106H11.8981V73.474C11.6101 73.986 11.1781 74.4126 10.6021 74.754C10.0368 75.0846 9.37547 75.25 8.61813 75.25C7.83947 75.25 7.13547 75.058 6.50613 74.674C5.8768 74.29 5.3808 73.7513 5.01813 73.058C4.65547 72.3646 4.47413 71.5753 4.47413 70.69ZM11.8981 70.706C11.8981 70.0446 11.7648 69.4686 11.4981 68.978C11.2315 68.4873 10.8688 68.114 10.4101 67.858C9.96213 67.5913 9.46613 67.458 8.92213 67.458C8.37813 67.458 7.88213 67.586 7.43413 67.842C6.98613 68.098 6.6288 68.4713 6.36213 68.962C6.09547 69.4526 5.96213 70.0286 5.96213 70.69C5.96213 71.362 6.09547 71.9486 6.36213 72.45C6.6288 72.9406 6.98613 73.3193 7.43413 73.586C7.88213 73.842 8.37813 73.97 8.92213 73.97C9.46613 73.97 9.96213 73.842 10.4101 73.586C10.8688 73.3193 11.2315 72.9406 11.4981 72.45C11.7648 71.9486 11.8981 71.3673 11.8981 70.706ZM15.2866 70.69C15.2866 69.794 15.468 69.01 15.8306 68.338C16.1933 67.6553 16.6893 67.1273 17.3186 66.754C17.9586 66.3806 18.6733 66.194 19.4626 66.194C20.1453 66.194 20.78 66.354 21.3666 66.674C21.9533 66.9833 22.4013 67.394 22.7106 67.906V63.266H24.1826V75.106H22.7106V73.458C22.4226 73.9806 21.996 74.4126 21.4306 74.754C20.8653 75.0846 20.204 75.25 19.4466 75.25C18.668 75.25 17.9586 75.058 17.3186 74.674C16.6893 74.29 16.1933 73.7513 15.8306 73.058C15.468 72.3646 15.2866 71.5753 15.2866 70.69ZM22.7106 70.706C22.7106 70.0446 22.5773 69.4686 22.3106 68.978C22.044 68.4873 21.6813 68.114 21.2226 67.858C20.7746 67.5913 20.2786 67.458 19.7346 67.458C19.1906 67.458 18.6946 67.586 18.2466 67.842C17.7986 68.098 17.4413 68.4713 17.1746 68.962C16.908 69.4526 16.7746 70.0286 16.7746 70.69C16.7746 71.362 16.908 71.9486 17.1746 72.45C17.4413 72.9406 17.7986 73.3193 18.2466 73.586C18.6946 73.842 19.1906 73.97 19.7346 73.97C20.2786 73.97 20.7746 73.842 21.2226 73.586C21.6813 73.3193 22.044 72.9406 22.3106 72.45C22.5773 71.9486 22.7106 71.3673 22.7106 70.706ZM26.0991 70.69C26.0991 69.794 26.2805 69.01 26.6431 68.338C27.0058 67.6553 27.5018 67.1273 28.1311 66.754C28.7711 66.3806 29.4858 66.194 30.2751 66.194C30.9578 66.194 31.5925 66.354 32.1791 66.674C32.7658 66.9833 33.2138 67.394 33.5231 67.906V63.266H34.9951V75.106H33.5231V73.458C33.2351 73.9806 32.8085 74.4126 32.2431 74.754C31.6778 75.0846 31.0165 75.25 30.2591 75.25C29.4805 75.25 28.7711 75.058 28.1311 74.674C27.5018 74.29 27.0058 73.7513 26.6431 73.058C26.2805 72.3646 26.0991 71.5753 26.0991 70.69ZM33.5231 70.706C33.5231 70.0446 33.3898 69.4686 33.1231 68.978C32.8565 68.4873 32.4938 68.114 32.0351 67.858C31.5871 67.5913 31.0911 67.458 30.5471 67.458C30.0031 67.458 29.5071 67.586 29.0591 67.842C28.6111 68.098 28.2538 68.4713 27.9871 68.962C27.7205 69.4526 27.5871 70.0286 27.5871 70.69C27.5871 71.362 27.7205 71.9486 27.9871 72.45C28.2538 72.9406 28.6111 73.3193 29.0591 73.586C29.5071 73.842 30.0031 73.97 30.5471 73.97C31.0911 73.97 31.5871 73.842 32.0351 73.586C32.4938 73.3193 32.8565 72.9406 33.1231 72.45C33.3898 71.9486 33.5231 71.3673 33.5231 70.706ZM42.4733 64.914C42.1959 64.914 41.9613 64.818 41.7693 64.626C41.5773 64.434 41.4813 64.1993 41.4813 63.922C41.4813 63.6446 41.5773 63.41 41.7693 63.218C41.9613 63.026 42.1959 62.93 42.4733 62.93C42.7399 62.93 42.9639 63.026 43.1453 63.218C43.3373 63.41 43.4333 63.6446 43.4333 63.922C43.4333 64.1993 43.3373 64.434 43.1453 64.626C42.9639 64.818 42.7399 64.914 42.4733 64.914ZM43.1773 66.338V75.106H41.7213V66.338H43.1773ZM56.2028 66.178C56.8854 66.178 57.4934 66.322 58.0268 66.61C58.5601 66.8873 58.9814 67.3086 59.2908 67.874C59.6001 68.4393 59.7548 69.1273 59.7548 69.938V75.106H58.3148V70.146C58.3148 69.2713 58.0961 68.6046 57.6588 68.146C57.2321 67.6766 56.6508 67.442 55.9148 67.442C55.1574 67.442 54.5548 67.6873 54.1068 68.178C53.6588 68.658 53.4348 69.3566 53.4348 70.274V75.106H51.9948V70.146C51.9948 69.2713 51.7761 68.6046 51.3388 68.146C50.9121 67.6766 50.3308 67.442 49.5948 67.442C48.8374 67.442 48.2348 67.6873 47.7868 68.178C47.3388 68.658 47.1148 69.3566 47.1148 70.274V75.106H45.6588V66.338H47.1148V67.602C47.4028 67.1433 47.7868 66.7913 48.2668 66.546C48.7574 66.3006 49.2961 66.178 49.8828 66.178C50.6188 66.178 51.2694 66.3433 51.8348 66.674C52.4001 67.0046 52.8214 67.49 53.0988 68.13C53.3441 67.5113 53.7494 67.0313 54.3148 66.69C54.8801 66.3486 55.5094 66.178 56.2028 66.178ZM61.5991 70.69C61.5991 69.794 61.7805 69.01 62.1431 68.338C62.5058 67.6553 63.0018 67.1273 63.6311 66.754C64.2711 66.3806 64.9805 66.194 65.7591 66.194C66.5271 66.194 67.1938 66.3593 67.7591 66.69C68.3245 67.0206 68.7458 67.4366 69.0231 67.938V66.338H70.4951V75.106H69.0231V73.474C68.7351 73.986 68.3031 74.4126 67.7271 74.754C67.1618 75.0846 66.5005 75.25 65.7431 75.25C64.9645 75.25 64.2605 75.058 63.6311 74.674C63.0018 74.29 62.5058 73.7513 62.1431 73.058C61.7805 72.3646 61.5991 71.5753 61.5991 70.69ZM69.0231 70.706C69.0231 70.0446 68.8898 69.4686 68.6231 68.978C68.3565 68.4873 67.9938 68.114 67.5351 67.858C67.0871 67.5913 66.5911 67.458 66.0471 67.458C65.5031 67.458 65.0071 67.586 64.5591 67.842C64.1111 68.098 63.7538 68.4713 63.4871 68.962C63.2205 69.4526 63.0871 70.0286 63.0871 70.69C63.0871 71.362 63.2205 71.9486 63.4871 72.45C63.7538 72.9406 64.1111 73.3193 64.5591 73.586C65.0071 73.842 65.5031 73.97 66.0471 73.97C66.5911 73.97 67.0871 73.842 67.5351 73.586C67.9938 73.3193 68.3565 72.9406 68.6231 72.45C68.8898 71.9486 69.0231 71.3673 69.0231 70.706ZM76.5716 66.194C77.329 66.194 77.9903 66.3593 78.5556 66.69C79.1316 67.0206 79.5583 67.4366 79.8356 67.938V66.338H81.3076V75.298C81.3076 76.098 81.137 76.8073 80.7956 77.426C80.4543 78.0553 79.9636 78.546 79.3236 78.898C78.6943 79.25 77.9583 79.426 77.1156 79.426C75.9636 79.426 75.0036 79.154 74.2356 78.61C73.4676 78.066 73.0143 77.3246 72.8756 76.386H74.3156C74.4756 76.9193 74.8063 77.346 75.3076 77.666C75.809 77.9966 76.4116 78.162 77.1156 78.162C77.9156 78.162 78.5663 77.9113 79.0676 77.41C79.5796 76.9086 79.8356 76.2046 79.8356 75.298V73.458C79.5476 73.97 79.121 74.3966 78.5556 74.738C77.9903 75.0793 77.329 75.25 76.5716 75.25C75.793 75.25 75.0836 75.058 74.4436 74.674C73.8143 74.29 73.3183 73.7513 72.9556 73.058C72.593 72.3646 72.4116 71.5753 72.4116 70.69C72.4116 69.794 72.593 69.01 72.9556 68.338C73.3183 67.6553 73.8143 67.1273 74.4436 66.754C75.0836 66.3806 75.793 66.194 76.5716 66.194ZM79.8356 70.706C79.8356 70.0446 79.7023 69.4686 79.4356 68.978C79.169 68.4873 78.8063 68.114 78.3476 67.858C77.8996 67.5913 77.4036 67.458 76.8596 67.458C76.3156 67.458 75.8196 67.586 75.3716 67.842C74.9236 68.098 74.5663 68.4713 74.2996 68.962C74.033 69.4526 73.8996 70.0286 73.8996 70.69C73.8996 71.362 74.033 71.9486 74.2996 72.45C74.5663 72.9406 74.9236 73.3193 75.3716 73.586C75.8196 73.842 76.3156 73.97 76.8596 73.97C77.4036 73.97 77.8996 73.842 78.3476 73.586C78.8063 73.3193 79.169 72.9406 79.4356 72.45C79.7023 71.9486 79.8356 71.3673 79.8356 70.706ZM91.7681 70.386C91.7681 70.6633 91.7521 70.9566 91.7201 71.266H84.7121C84.7655 72.13 85.0588 72.8073 85.5921 73.298C86.1361 73.778 86.7921 74.018 87.5601 74.018C88.1895 74.018 88.7121 73.874 89.1281 73.586C89.5548 73.2873 89.8535 72.8926 90.0241 72.402H91.5921C91.3575 73.2446 90.8881 73.9326 90.1841 74.466C89.4801 74.9886 88.6055 75.25 87.5601 75.25C86.7281 75.25 85.9815 75.0633 85.3201 74.69C84.6695 74.3166 84.1575 73.7886 83.7841 73.106C83.4108 72.4126 83.2241 71.6126 83.2241 70.706C83.2241 69.7993 83.4055 69.0046 83.7681 68.322C84.1308 67.6393 84.6375 67.1166 85.2881 66.754C85.9495 66.3806 86.7068 66.194 87.5601 66.194C88.3921 66.194 89.1281 66.3753 89.7681 66.738C90.4081 67.1006 90.8988 67.602 91.2401 68.242C91.5921 68.8713 91.7681 69.586 91.7681 70.386ZM90.2641 70.082C90.2641 69.5273 90.1415 69.0526 89.8961 68.658C89.6508 68.2526 89.3148 67.9486 88.8881 67.746C88.4721 67.5326 88.0081 67.426 87.4961 67.426C86.7601 67.426 86.1308 67.6606 85.6081 68.13C85.0961 68.5993 84.8028 69.25 84.7281 70.082H90.2641Z" fill="#F0754E"/>
<path d="M41.2155 28.1667L48.4655 19.5L55.7155 29.25V26H65.3822V10.8333C65.3822 8.4435 63.2144 6.5 60.5488 6.5H29.1322C26.4666 6.5 24.2988 8.4435 24.2988 10.8333V36.8333C24.2988 39.2232 26.4666 41.1667 29.1322 41.1667H48.4655V32.5H31.5488L38.7988 23.8333L41.2155 28.1667Z" fill="#F0754E"/>
<path d="M65.3822 30.3335H60.5488V36.8335H53.2988V41.1668H60.5488V47.6668H65.3822V41.1668H72.6322V36.8335H65.3822V30.3335Z" fill="#F0754E"/>
</svg>
