<svg width="23" height="23" viewBox="0 0 23 23" fill="none" xmlns="http://www.w3.org/2000/svg">
<path d="M22.2812 18.6875C21.85 18.6875 21.5625 18.4 21.5625 17.9688V8.625C21.5625 8.19375 21.85 7.90625 22.2812 7.90625C22.7125 7.90625 23 8.19375 23 8.625V17.9688C23 18.4 22.7125 18.6875 22.2812 18.6875Z" fill="black"/>
<path d="M11.5 15.0936C11.3562 15.0936 11.2844 15.0936 11.1406 15.0217L0.359375 9.27168C0.14375 9.12793 0 8.9123 0 8.6248C0 8.3373 0.14375 8.12168 0.359375 7.97793L11.1406 2.22793C11.3563 2.08418 11.5719 2.08418 11.7875 2.22793L22.5687 7.97793C22.7844 8.12168 22.9281 8.3373 22.9281 8.6248C22.9281 8.9123 22.7844 9.12793 22.5687 9.27168L11.7875 15.0217C11.7156 15.0936 11.6438 15.0936 11.5 15.0936Z" fill="black"/>
<path d="M12.5062 16.2437C12.2187 16.4593 11.8594 16.5312 11.5 16.5312C11.1406 16.5312 10.7813 16.4593 10.4938 16.2437L4.3125 13.0093V15.8124C4.3125 18.0405 7.83438 20.1249 11.5 20.1249C15.1656 20.1249 18.6875 18.0405 18.6875 15.8124V13.0093L12.5062 16.2437Z" fill="black"/>
</svg>
