<svg width="21" height="23" viewBox="0 0 21 23" fill="none" xmlns="http://www.w3.org/2000/svg">
<path d="M19.5045 13.0082L19.0936 12.7721C18.6045 12.4917 18.3124 11.9884 18.3124 11.4269C18.3124 10.8653 18.6045 10.362 19.0936 10.0817L19.5045 9.84554C20.6264 9.20089 21.01 7.77799 20.3624 6.66267L19.5811 5.31744C18.935 4.20444 17.4983 3.82231 16.3795 4.46463L15.9686 4.69997C15.4795 4.98113 14.8944 4.98113 14.4061 4.69997C13.917 4.41881 13.6249 3.91629 13.6249 3.35474V2.88329C13.6249 1.59865 12.5733 0.553223 11.2811 0.553223H9.71861C8.42642 0.553223 7.37486 1.59865 7.37486 2.88329V3.35552C7.37486 3.91707 7.08267 4.41959 6.59361 4.70075C6.10455 4.98113 5.52017 4.98191 5.03111 4.70075L4.62017 4.46463C3.50142 3.82231 2.0647 4.20444 1.41783 5.31744L0.636577 6.66267C-0.0110793 7.77799 0.372514 9.20167 1.49439 9.84554L1.90611 10.0817C2.39517 10.362 2.68736 10.8653 2.68736 11.4269C2.68736 11.9884 2.39517 12.4917 1.90611 12.7721L1.49517 13.0082C0.373296 13.6521 -0.0102981 15.0758 0.637358 16.1911L1.41861 17.5363C2.06548 18.6493 3.5022 19.0315 4.62017 18.3891L5.03111 18.1538C5.52017 17.8719 6.10455 17.8734 6.59361 18.1538C7.08267 18.435 7.37486 18.9375 7.37486 19.499V19.9705C7.37486 21.2551 8.42642 22.3005 9.71861 22.3005H11.2811C12.5733 22.3005 13.6249 21.2551 13.6249 19.9705V19.4982C13.6249 18.9367 13.917 18.4342 14.4061 18.153C14.8944 17.8726 15.4795 17.8719 15.9686 18.153L16.3795 18.3891C17.4983 19.0307 18.935 18.6485 19.5811 17.5363L20.3624 16.1911C21.01 15.0758 20.6264 13.6521 19.5045 13.0082ZM10.4999 15.3103C8.34595 15.3103 6.59361 13.5682 6.59361 11.4269C6.59361 9.28555 8.34595 7.54343 10.4999 7.54343C12.6538 7.54343 14.4061 9.28555 14.4061 11.4269C14.4061 13.5682 12.6538 15.3103 10.4999 15.3103Z" fill="#000"/>
</svg>
